<svg version="1" xmlns="http://www.w3.org/2000/svg" width="1333.333" height="1333.333" viewBox="0 0 1000.000000 1000.000000"><path d="M462.3 158.5c-69.1 7.9-132.7 35.4-185.9 80.6-12.2 10.4-36.8 36.1-46.8 48.9-14.6 18.7-26 37.1-37.1 59.5-17.8 36-27.4 67.2-33.2 107.8-2.5 17.5-2.5 71.9 0 89.4 5.7 40.5 15.4 71.8 33.2 107.8 48.3 97.7 138.9 166 246.1 185.5 37 6.7 85.8 6.7 122.8 0 92.3-16.8 173.1-70.1 225.1-148.5 28.9-43.6 46.5-90.6 54.2-144.8 2.5-17.5 2.5-71.9 0-89.4-5.8-40.6-15.4-71.8-33.2-107.8-16.9-34.1-34.7-59.4-61-86.4-30.2-31-56.4-50.1-95-69.1-34.6-17.1-66.7-27-105.7-32.6-15.7-2.2-66.9-2.8-83.5-.9zm57.2 79c11.3.5 24.9 2.4 36.7 5.1l6.8 1.6V449H437V244.2l6.8-1.6c17.4-4 46-6.8 59.7-6 2.8.2 10 .6 16 .9zM320 500.2l-.1 192.3-9-9.4c-40.9-42.3-66.7-97.2-72.9-155-1.4-13.3-1.4-42.9 0-56.2 5.3-49 25-96.9 55.9-135.7 6.9-8.6 24.7-28.2 25.7-28.2.2 0 .4 86.5.4 192.2zm386.1-164c26.3 33 44 71.3 52.3 112.8 3.5 17.7 4.7 30.6 4.7 51s-1.2 33.3-4.7 51c-9.9 49.7-33.6 95-68.7 131.5l-8.6 9v-383l8.6 9c4.8 4.9 12.1 13.3 16.4 18.7zM563 652.4v103.4l-6.8 1.6c-34.2 7.8-78.2 7.8-112.4 0l-6.8-1.6V549h126v103.4z"/></svg>